<svg xmlns="http://www.w3.org/2000/svg" xmlns:xlink="http://www.w3.org/1999/xlink" width="600" zoomAndPan="magnify" viewBox="0 0 450 136.499996" height="182" preserveAspectRatio="xMidYMid meet" version="1.0"><defs><clipPath id="b87aa9181d"><path d="M 73 86 L 278 86 L 278 132.457031 L 73 132.457031 Z M 73 86 " clip-rule="nonzero"/></clipPath><clipPath id="b97496e7d6"><path d="M 381 6 L 435.878906 6 L 435.878906 80 L 381 80 Z M 381 6 " clip-rule="nonzero"/></clipPath><clipPath id="31394d79bf"><path d="M 185 5.421875 L 248 5.421875 L 248 80 L 185 80 Z M 185 5.421875 " clip-rule="nonzero"/></clipPath><clipPath id="2b8815837a"><path d="M 14.421875 5.421875 L 77 5.421875 L 77 80 L 14.421875 80 Z M 14.421875 5.421875 " clip-rule="nonzero"/></clipPath></defs><g clip-path="url(#b87aa9181d)"><path fill="#ff9900" d="M 275.632812 104.71875 C 251.191406 122.738281 215.761719 132.347656 185.261719 132.347656 C 142.488281 132.347656 103.984375 116.53125 74.855469 90.21875 C 72.566406 88.152344 74.617188 85.332031 77.363281 86.941406 C 108.800781 105.234375 147.671875 116.238281 187.824219 116.238281 C 214.902344 116.238281 244.691406 110.632812 272.082031 99.007812 C 276.21875 97.25 279.679688 101.71875 275.632812 104.71875 " fill-opacity="1" fill-rule="nonzero"/></g><path fill="#ff9900" d="M 285.796875 93.09375 C 282.683594 89.101562 265.144531 91.207031 257.269531 92.140625 C 254.871094 92.433594 254.503906 90.347656 256.667969 88.847656 C 270.636719 79.015625 293.558594 81.851562 296.234375 85.148438 C 298.90625 88.460938 295.535156 111.441406 282.410156 122.40625 C 280.394531 124.089844 278.472656 123.195312 279.371094 120.960938 C 282.316406 113.601562 288.925781 97.105469 285.796875 93.09375 " fill-opacity="1" fill-rule="nonzero"/><path fill="#ffffff" d="M 257.820312 19.4375 L 257.820312 9.878906 C 257.820312 8.433594 258.917969 7.460938 260.238281 7.460938 L 303.023438 7.460938 C 304.398438 7.460938 305.496094 8.449219 305.496094 9.878906 L 305.496094 18.0625 C 305.480469 19.4375 304.324219 21.230469 302.273438 24.066406 L 280.101562 55.726562 C 288.339844 55.523438 297.039062 56.75 304.507812 60.960938 C 306.191406 61.914062 306.652344 63.304688 306.777344 64.679688 L 306.777344 74.875 C 306.777344 76.269531 305.242188 77.898438 303.628906 77.054688 C 290.464844 70.152344 272.980469 69.402344 258.421875 77.128906 C 256.941406 77.933594 255.382812 76.324219 255.382812 74.929688 L 255.382812 65.246094 C 255.382812 63.6875 255.402344 61.035156 256.960938 58.671875 L 282.648438 21.835938 L 260.292969 21.835938 C 258.917969 21.835938 257.820312 20.863281 257.820312 19.4375 " fill-opacity="1" fill-rule="nonzero"/><path fill="#ffffff" d="M 101.734375 79.070312 L 88.714844 79.070312 C 87.46875 78.976562 86.480469 78.042969 86.390625 76.855469 L 86.390625 10.042969 C 86.390625 8.707031 87.507812 7.644531 88.898438 7.644531 L 101.039062 7.644531 C 102.300781 7.699219 103.308594 8.671875 103.398438 9.878906 L 103.398438 18.613281 L 103.636719 18.613281 C 106.804688 10.171875 112.753906 6.234375 120.773438 6.234375 C 128.921875 6.234375 134.011719 10.171875 137.675781 18.613281 C 140.824219 10.171875 147.980469 6.234375 155.652344 6.234375 C 161.109375 6.234375 167.078125 8.488281 170.722656 13.539062 C 174.84375 19.160156 174 27.328125 174 34.484375 L 173.980469 76.652344 C 173.980469 77.988281 172.863281 79.070312 171.472656 79.070312 L 158.472656 79.070312 C 157.171875 78.976562 156.128906 77.933594 156.128906 76.652344 L 156.128906 41.242188 C 156.128906 38.421875 156.386719 31.390625 155.765625 28.71875 C 154.792969 24.234375 151.882812 22.96875 148.109375 22.96875 C 144.960938 22.96875 141.664062 25.074219 140.328125 28.445312 C 138.992188 31.8125 139.121094 37.453125 139.121094 41.242188 L 139.121094 76.652344 C 139.121094 77.988281 138.003906 79.070312 136.613281 79.070312 L 123.613281 79.070312 C 122.292969 78.976562 121.269531 77.933594 121.269531 76.652344 L 121.25 41.242188 C 121.25 33.789062 122.476562 22.824219 113.230469 22.824219 C 103.875 22.824219 104.242188 33.515625 104.242188 41.242188 L 104.242188 76.652344 C 104.242188 77.988281 103.125 79.070312 101.734375 79.070312 " fill-opacity="1" fill-rule="nonzero"/><path fill="#ffffff" d="M 342.335938 6.234375 C 361.652344 6.234375 372.105469 22.824219 372.105469 43.914062 C 372.105469 64.292969 360.554688 80.460938 342.335938 80.460938 C 323.367188 80.460938 313.039062 63.871094 313.039062 43.203125 C 313.039062 22.402344 323.496094 6.234375 342.335938 6.234375 M 342.445312 19.875 C 332.851562 19.875 332.246094 32.949219 332.246094 41.097656 C 332.246094 49.261719 332.117188 66.691406 342.335938 66.691406 C 352.421875 66.691406 352.898438 52.628906 352.898438 44.0625 C 352.898438 38.421875 352.660156 31.683594 350.957031 26.339844 C 349.492188 21.6875 346.582031 19.875 342.445312 19.875 " fill-opacity="1" fill-rule="nonzero"/><g clip-path="url(#b97496e7d6)"><path fill="#ffffff" d="M 397.152344 79.070312 L 384.191406 79.070312 C 382.890625 78.976562 381.847656 77.933594 381.847656 76.652344 L 381.828125 9.824219 C 381.9375 8.597656 383.019531 7.644531 384.335938 7.644531 L 396.402344 7.644531 C 397.539062 7.699219 398.472656 8.46875 398.726562 9.511719 L 398.726562 19.730469 L 398.964844 19.730469 C 402.609375 10.59375 407.71875 6.234375 416.707031 6.234375 C 422.546875 6.234375 428.242188 8.339844 431.902344 14.109375 C 435.308594 19.453125 435.308594 28.445312 435.308594 34.90625 L 435.308594 76.964844 C 435.164062 78.136719 434.082031 79.070312 432.800781 79.070312 L 419.746094 79.070312 C 418.558594 78.976562 417.566406 78.097656 417.441406 76.964844 L 417.441406 40.675781 C 417.441406 33.371094 418.28125 22.675781 409.292969 22.675781 C 406.125 22.675781 403.214844 24.800781 401.765625 28.023438 C 399.9375 32.105469 399.699219 36.171875 399.699219 40.675781 L 399.699219 76.652344 C 399.679688 77.988281 398.542969 79.070312 397.152344 79.070312 " fill-opacity="1" fill-rule="nonzero"/></g><g clip-path="url(#31394d79bf)"><path fill="#ffffff" d="M 223.710938 47.15625 L 223.710938 44.335938 C 214.296875 44.335938 204.355469 46.351562 204.355469 57.445312 C 204.355469 63.066406 207.269531 66.875 212.265625 66.875 C 215.929688 66.875 219.207031 64.625 221.273438 60.960938 C 223.835938 56.457031 223.710938 52.226562 223.710938 47.15625 M 236.835938 78.886719 C 235.976562 79.65625 234.730469 79.710938 233.761719 79.199219 C 229.441406 75.609375 228.671875 73.941406 226.292969 70.519531 C 219.152344 77.804688 214.097656 79.984375 204.832031 79.984375 C 193.882812 79.984375 185.351562 73.230469 185.351562 59.699219 C 185.351562 49.132812 191.082031 41.9375 199.230469 38.421875 C 206.296875 35.308594 216.167969 34.761719 223.710938 33.898438 L 223.710938 32.214844 C 223.710938 29.121094 223.949219 25.460938 222.136719 22.785156 C 220.542969 20.386719 217.503906 19.398438 214.828125 19.398438 C 209.867188 19.398438 205.4375 21.945312 204.355469 27.21875 C 204.136719 28.390625 203.277344 29.542969 202.105469 29.597656 L 189.472656 28.242188 C 188.410156 28.003906 187.238281 27.144531 187.53125 25.515625 C 190.441406 10.207031 204.265625 5.59375 216.640625 5.59375 C 222.976562 5.59375 231.253906 7.277344 236.25 12.074219 C 242.585938 17.988281 241.980469 25.878906 241.980469 34.46875 L 241.980469 54.753906 C 241.980469 60.851562 244.507812 63.523438 246.890625 66.820312 C 247.730469 67.992188 247.914062 69.402344 246.851562 70.28125 C 244.199219 72.496094 239.472656 76.617188 236.875 78.921875 L 236.835938 78.886719 " fill-opacity="1" fill-rule="nonzero"/></g><g clip-path="url(#2b8815837a)"><path fill="#ffffff" d="M 53.050781 47.15625 L 53.050781 44.335938 C 43.636719 44.335938 33.695312 46.351562 33.695312 57.445312 C 33.695312 63.066406 36.605469 66.875 41.605469 66.875 C 45.265625 66.875 48.542969 64.625 50.613281 60.960938 C 53.175781 56.457031 53.050781 52.226562 53.050781 47.15625 M 66.175781 78.886719 C 65.316406 79.65625 64.070312 79.710938 63.101562 79.199219 C 58.78125 75.609375 58.011719 73.941406 55.628906 70.519531 C 48.488281 77.804688 43.4375 79.984375 34.171875 79.984375 C 23.222656 79.984375 14.691406 73.230469 14.691406 59.699219 C 14.691406 49.132812 20.421875 41.9375 28.570312 38.421875 C 35.636719 35.308594 45.503906 34.761719 53.050781 33.898438 L 53.050781 32.214844 C 53.050781 29.121094 53.285156 25.460938 51.472656 22.785156 C 49.882812 20.386719 46.84375 19.398438 44.167969 19.398438 C 39.207031 19.398438 34.777344 21.945312 33.695312 27.21875 C 33.476562 28.390625 32.617188 29.542969 31.445312 29.597656 L 18.8125 28.242188 C 17.75 28.003906 16.578125 27.144531 16.871094 25.515625 C 19.78125 10.207031 33.605469 5.59375 45.980469 5.59375 C 52.316406 5.59375 60.59375 7.277344 65.589844 12.074219 C 71.925781 17.988281 71.320312 25.878906 71.320312 34.46875 L 71.320312 54.753906 C 71.320312 60.851562 73.847656 63.523438 76.226562 66.820312 C 77.070312 67.992188 77.253906 69.402344 76.191406 70.28125 C 73.535156 72.496094 68.8125 76.617188 66.214844 78.921875 L 66.175781 78.886719 " fill-opacity="1" fill-rule="nonzero"/></g></svg>