<svg xmlns="http://www.w3.org/2000/svg" xmlns:xlink="http://www.w3.org/1999/xlink" width="1206" zoomAndPan="magnify" viewBox="0 0 904.5 136.499996" height="182" preserveAspectRatio="xMidYMid meet" version="1.0"><defs><g/></defs><g fill="#ffffff" fill-opacity="1"><g transform="translate(10.137259, 87.056105)"><g><path d="M 52.765625 0 L 49.984375 -34.765625 L 49.640625 -34.765625 L 37.609375 -0.359375 L 29.65625 -0.359375 L 17.640625 -34.765625 L 17.28125 -34.765625 L 14.5 0 L 1.140625 0 L 6.40625 -58.671875 L 20.625 -58.671875 L 33.640625 -24.8125 L 46.640625 -58.671875 L 60.875 -58.671875 L 66.125 0 Z M 52.765625 0 "/></g></g></g><g fill="#ffffff" fill-opacity="1"><g transform="translate(79.253279, 87.056105)"><g><path d="M 37.828125 -58.671875 L 37.828125 -46.9375 L 17.640625 -46.9375 L 17.640625 -35.265625 L 36.984375 -35.265625 L 36.984375 -23.53125 L 17.640625 -23.53125 L 17.640625 -11.734375 L 37.828125 -11.734375 L 37.828125 0 L 4.265625 0 L 4.265625 -58.671875 Z M 37.828125 -58.671875 "/></g></g></g><g fill="#ffffff" fill-opacity="1"><g transform="translate(122.344259, 87.056105)"><g><path d="M 0.5625 -46.9375 L 0.5625 -58.671875 L 41.8125 -58.671875 L 41.8125 -46.9375 L 27.875 -46.9375 L 27.875 0 L 14.5 0 L 14.5 -46.9375 Z M 0.5625 -46.9375 "/></g></g></g><g fill="#ffffff" fill-opacity="1"><g transform="translate(163.159323, 87.056105)"><g><path d="M 34.0625 -58.671875 L 57.734375 0 L 43.375 0 L 39.03125 -11.734375 L 16.703125 -11.734375 L 12.375 0 L -1.984375 0 L 21.6875 -58.671875 Z M 34.484375 -23.46875 L 27.953125 -40.53125 L 27.796875 -40.53125 L 21.265625 -23.46875 Z M 34.484375 -23.46875 "/></g></g></g><g fill="#ffffff" fill-opacity="1"><g transform="translate(220.756066, 87.056105)"><g><path d="M 4.265625 -58.671875 L 21.265625 -58.671875 C 29.421875 -58.671875 36.390625 -55.882812 42.171875 -50.3125 C 47.953125 -44.738281 50.84375 -37.757812 50.84375 -29.375 C 50.84375 -20.925781 47.960938 -13.914062 42.203125 -8.34375 C 36.441406 -2.78125 29.460938 0 21.265625 0 L 4.265625 0 Z M 17.640625 -11.953125 L 19.703125 -11.953125 C 24.578125 -11.953125 28.566406 -13.597656 31.671875 -16.890625 C 34.785156 -20.179688 36.363281 -24.316406 36.40625 -29.296875 C 36.40625 -34.273438 34.851562 -38.421875 31.75 -41.734375 C 28.644531 -45.054688 24.628906 -46.71875 19.703125 -46.71875 L 17.640625 -46.71875 Z M 17.640625 -11.953125 "/></g></g></g><g fill="#ffffff" fill-opacity="1"><g transform="translate(275.081892, 87.056105)"><g><path d="M 34.0625 -58.671875 L 57.734375 0 L 43.375 0 L 39.03125 -11.734375 L 16.703125 -11.734375 L 12.375 0 L -1.984375 0 L 21.6875 -58.671875 Z M 34.484375 -23.46875 L 27.953125 -40.53125 L 27.796875 -40.53125 L 21.265625 -23.46875 Z M 34.484375 -23.46875 "/></g></g></g><g fill="#ffffff" fill-opacity="1"><g transform="translate(329.265007, 87.056105)"><g><path d="M 0.5625 -46.9375 L 0.5625 -58.671875 L 41.8125 -58.671875 L 41.8125 -46.9375 L 27.875 -46.9375 L 27.875 0 L 14.5 0 L 14.5 -46.9375 Z M 0.5625 -46.9375 "/></g></g></g><g fill="#ffffff" fill-opacity="1"><g transform="translate(370.080083, 87.056105)"><g><path d="M 34.0625 -58.671875 L 57.734375 0 L 43.375 0 L 39.03125 -11.734375 L 16.703125 -11.734375 L 12.375 0 L -1.984375 0 L 21.6875 -58.671875 Z M 34.484375 -23.46875 L 27.953125 -40.53125 L 27.796875 -40.53125 L 21.265625 -23.46875 Z M 34.484375 -23.46875 "/></g></g></g><g fill="#ffffff" fill-opacity="1"><g transform="translate(427.676825, 87.056105)"><g/></g></g><g fill="#ffffff" fill-opacity="1"><g transform="translate(447.515729, 87.056105)"><g><path d="M 25.890625 -59.734375 C 29.054688 -59.734375 32.15625 -59.269531 35.1875 -58.34375 C 38.226562 -57.414062 40.484375 -56.503906 41.953125 -55.609375 L 44.09375 -54.1875 L 38.6875 -43.515625 C 38.257812 -43.804688 37.664062 -44.175781 36.90625 -44.625 C 36.144531 -45.070312 34.722656 -45.675781 32.640625 -46.4375 C 30.554688 -47.195312 28.613281 -47.578125 26.8125 -47.578125 C 24.582031 -47.578125 22.863281 -47.101562 21.65625 -46.15625 C 20.445312 -45.207031 19.84375 -43.925781 19.84375 -42.3125 C 19.84375 -41.5 20.125 -40.75 20.6875 -40.0625 C 21.257812 -39.375 22.234375 -38.640625 23.609375 -37.859375 C 24.984375 -37.078125 26.191406 -36.445312 27.234375 -35.96875 C 28.273438 -35.5 29.882812 -34.789062 32.0625 -33.84375 C 35.863281 -32.238281 39.101562 -30.046875 41.78125 -27.265625 C 44.457031 -24.492188 45.796875 -21.351562 45.796875 -17.84375 C 45.796875 -14.476562 45.191406 -11.539062 43.984375 -9.03125 C 42.773438 -6.519531 41.113281 -4.550781 39 -3.125 C 36.894531 -1.707031 34.5625 -0.65625 32 0.03125 C 29.4375 0.71875 26.660156 1.0625 23.671875 1.0625 C 21.117188 1.0625 18.609375 0.800781 16.140625 0.28125 C 13.671875 -0.238281 11.609375 -0.890625 9.953125 -1.671875 C 8.296875 -2.453125 6.800781 -3.222656 5.46875 -3.984375 C 4.144531 -4.742188 3.175781 -5.382812 2.5625 -5.90625 L 1.640625 -6.6875 L 8.3125 -17.921875 C 8.882812 -17.441406 9.664062 -16.832031 10.65625 -16.09375 C 11.65625 -15.363281 13.421875 -14.382812 15.953125 -13.15625 C 18.492188 -11.925781 20.738281 -11.3125 22.6875 -11.3125 C 28.320312 -11.3125 31.140625 -13.226562 31.140625 -17.0625 C 31.140625 -17.875 30.9375 -18.625 30.53125 -19.3125 C 30.132812 -20 29.425781 -20.6875 28.40625 -21.375 C 27.382812 -22.0625 26.484375 -22.601562 25.703125 -23 C 24.921875 -23.40625 23.640625 -24.019531 21.859375 -24.84375 C 20.085938 -25.675781 18.773438 -26.304688 17.921875 -26.734375 C 14.367188 -28.492188 11.617188 -30.6875 9.671875 -33.3125 C 7.722656 -35.945312 6.75 -38.78125 6.75 -41.8125 C 6.75 -47.070312 8.691406 -51.375 12.578125 -54.71875 C 16.472656 -58.0625 20.910156 -59.734375 25.890625 -59.734375 Z M 25.890625 -59.734375 "/></g></g></g><g fill="#ffffff" fill-opacity="1"><g transform="translate(497.148496, 87.056105)"><g><path d="M 1.640625 -29.375 C 1.640625 -37.851562 4.53125 -45.03125 10.3125 -50.90625 C 16.09375 -56.789062 23.0625 -59.734375 31.21875 -59.734375 C 39.414062 -59.734375 46.382812 -56.804688 52.125 -50.953125 C 57.863281 -45.097656 60.734375 -37.90625 60.734375 -29.375 C 60.734375 -20.789062 57.910156 -13.570312 52.265625 -7.71875 C 46.617188 -1.863281 39.601562 1.0625 31.21875 1.0625 C 22.632812 1.0625 15.554688 -1.835938 9.984375 -7.640625 C 4.421875 -13.453125 1.640625 -20.695312 1.640625 -29.375 Z M 16.078125 -29.375 C 16.078125 -26.289062 16.550781 -23.476562 17.5 -20.9375 C 18.445312 -18.40625 20.101562 -16.257812 22.46875 -14.5 C 24.84375 -12.75 27.757812 -11.875 31.21875 -11.875 C 36.195312 -11.875 39.953125 -13.578125 42.484375 -16.984375 C 45.023438 -20.398438 46.296875 -24.53125 46.296875 -29.375 C 46.296875 -34.15625 45.003906 -38.265625 42.421875 -41.703125 C 39.835938 -45.140625 36.101562 -46.859375 31.21875 -46.859375 C 26.382812 -46.859375 22.648438 -45.140625 20.015625 -41.703125 C 17.390625 -38.265625 16.078125 -34.15625 16.078125 -29.375 Z M 16.078125 -29.375 "/></g></g></g><g fill="#ffffff" fill-opacity="1"><g transform="translate(561.358176, 87.056105)"><g><path d="M 17.640625 -58.671875 L 17.640625 -11.734375 L 37.828125 -11.734375 L 37.828125 0 L 4.265625 0 L 4.265625 -58.671875 Z M 17.640625 -58.671875 "/></g></g></g><g fill="#ffffff" fill-opacity="1"><g transform="translate(603.382537, 87.056105)"><g><path d="M 49.34375 -58.671875 L 49.34375 -20.828125 C 49.34375 -13.628906 47.398438 -8.179688 43.515625 -4.484375 C 39.628906 -0.785156 33.941406 1.0625 26.453125 1.0625 C 18.960938 1.0625 13.273438 -0.785156 9.390625 -4.484375 C 5.503906 -8.179688 3.5625 -13.628906 3.5625 -20.828125 L 3.5625 -58.671875 L 16.921875 -58.671875 L 16.921875 -24.75 C 16.921875 -20.007812 17.664062 -16.710938 19.15625 -14.859375 C 20.65625 -13.015625 23.085938 -12.09375 26.453125 -12.09375 C 29.816406 -12.09375 32.242188 -13.015625 33.734375 -14.859375 C 35.234375 -16.710938 35.984375 -20.007812 35.984375 -24.75 L 35.984375 -58.671875 Z M 49.34375 -58.671875 "/></g></g></g><g fill="#ffffff" fill-opacity="1"><g transform="translate(654.72141, 87.056105)"><g><path d="M 0.5625 -46.9375 L 0.5625 -58.671875 L 41.8125 -58.671875 L 41.8125 -46.9375 L 27.875 -46.9375 L 27.875 0 L 14.5 0 L 14.5 -46.9375 Z M 0.5625 -46.9375 "/></g></g></g><g fill="#ffffff" fill-opacity="1"><g transform="translate(698.950068, 87.056105)"><g><path d="M 17.640625 -58.671875 L 17.640625 0 L 4.265625 0 L 4.265625 -58.671875 Z M 17.640625 -58.671875 "/></g></g></g><g fill="#ffffff" fill-opacity="1"><g transform="translate(722.700015, 87.056105)"><g><path d="M 1.640625 -29.375 C 1.640625 -37.851562 4.53125 -45.03125 10.3125 -50.90625 C 16.09375 -56.789062 23.0625 -59.734375 31.21875 -59.734375 C 39.414062 -59.734375 46.382812 -56.804688 52.125 -50.953125 C 57.863281 -45.097656 60.734375 -37.90625 60.734375 -29.375 C 60.734375 -20.789062 57.910156 -13.570312 52.265625 -7.71875 C 46.617188 -1.863281 39.601562 1.0625 31.21875 1.0625 C 22.632812 1.0625 15.554688 -1.835938 9.984375 -7.640625 C 4.421875 -13.453125 1.640625 -20.695312 1.640625 -29.375 Z M 16.078125 -29.375 C 16.078125 -26.289062 16.550781 -23.476562 17.5 -20.9375 C 18.445312 -18.40625 20.101562 -16.257812 22.46875 -14.5 C 24.84375 -12.75 27.757812 -11.875 31.21875 -11.875 C 36.195312 -11.875 39.953125 -13.578125 42.484375 -16.984375 C 45.023438 -20.398438 46.296875 -24.53125 46.296875 -29.375 C 46.296875 -34.15625 45.003906 -38.265625 42.421875 -41.703125 C 39.835938 -45.140625 36.101562 -46.859375 31.21875 -46.859375 C 26.382812 -46.859375 22.648438 -45.140625 20.015625 -41.703125 C 17.390625 -38.265625 16.078125 -34.15625 16.078125 -29.375 Z M 16.078125 -29.375 "/></g></g></g><g fill="#ffffff" fill-opacity="1"><g transform="translate(786.90965, 87.056105)"><g><path d="M 17.640625 -36.40625 L 17.640625 0 L 4.265625 0 L 4.265625 -58.671875 L 17.640625 -58.671875 L 40.953125 -22.25 L 41.09375 -22.25 L 41.09375 -58.671875 L 54.46875 -58.671875 L 54.46875 0 L 41.09375 0 L 17.78125 -36.40625 Z M 17.640625 -36.40625 "/></g></g></g><g fill="#ffffff" fill-opacity="1"><g transform="translate(846.070563, 87.056105)"><g><path d="M 25.890625 -59.734375 C 29.054688 -59.734375 32.15625 -59.269531 35.1875 -58.34375 C 38.226562 -57.414062 40.484375 -56.503906 41.953125 -55.609375 L 44.09375 -54.1875 L 38.6875 -43.515625 C 38.257812 -43.804688 37.664062 -44.175781 36.90625 -44.625 C 36.144531 -45.070312 34.722656 -45.675781 32.640625 -46.4375 C 30.554688 -47.195312 28.613281 -47.578125 26.8125 -47.578125 C 24.582031 -47.578125 22.863281 -47.101562 21.65625 -46.15625 C 20.445312 -45.207031 19.84375 -43.925781 19.84375 -42.3125 C 19.84375 -41.5 20.125 -40.75 20.6875 -40.0625 C 21.257812 -39.375 22.234375 -38.640625 23.609375 -37.859375 C 24.984375 -37.078125 26.191406 -36.445312 27.234375 -35.96875 C 28.273438 -35.5 29.882812 -34.789062 32.0625 -33.84375 C 35.863281 -32.238281 39.101562 -30.046875 41.78125 -27.265625 C 44.457031 -24.492188 45.796875 -21.351562 45.796875 -17.84375 C 45.796875 -14.476562 45.191406 -11.539062 43.984375 -9.03125 C 42.773438 -6.519531 41.113281 -4.550781 39 -3.125 C 36.894531 -1.707031 34.5625 -0.65625 32 0.03125 C 29.4375 0.71875 26.660156 1.0625 23.671875 1.0625 C 21.117188 1.0625 18.609375 0.800781 16.140625 0.28125 C 13.671875 -0.238281 11.609375 -0.890625 9.953125 -1.671875 C 8.296875 -2.453125 6.800781 -3.222656 5.46875 -3.984375 C 4.144531 -4.742188 3.175781 -5.382812 2.5625 -5.90625 L 1.640625 -6.6875 L 8.3125 -17.921875 C 8.882812 -17.441406 9.664062 -16.832031 10.65625 -16.09375 C 11.65625 -15.363281 13.421875 -14.382812 15.953125 -13.15625 C 18.492188 -11.925781 20.738281 -11.3125 22.6875 -11.3125 C 28.320312 -11.3125 31.140625 -13.226562 31.140625 -17.0625 C 31.140625 -17.875 30.9375 -18.625 30.53125 -19.3125 C 30.132812 -20 29.425781 -20.6875 28.40625 -21.375 C 27.382812 -22.0625 26.484375 -22.601562 25.703125 -23 C 24.921875 -23.40625 23.640625 -24.019531 21.859375 -24.84375 C 20.085938 -25.675781 18.773438 -26.304688 17.921875 -26.734375 C 14.367188 -28.492188 11.617188 -30.6875 9.671875 -33.3125 C 7.722656 -35.945312 6.75 -38.78125 6.75 -41.8125 C 6.75 -47.070312 8.691406 -51.375 12.578125 -54.71875 C 16.472656 -58.0625 20.910156 -59.734375 25.890625 -59.734375 Z M 25.890625 -59.734375 "/></g></g></g></svg>