<svg xmlns="http://www.w3.org/2000/svg" xmlns:xlink="http://www.w3.org/1999/xlink" width="200" viewBox="0 0 150 74.999997" height="100" preserveAspectRatio="xMidYMid meet"><defs><filter x="0%" y="0%" width="100%" height="100%" id="3b74a8bfe1"></filter><filter x="0%" y="0%" width="100%" height="100%" id="47bf3f7cc7"></filter><g></g><clipPath id="501b3c99a6"><path d="M 1 0.640625 L 117 0.640625 L 117 46 L 1 46 Z M 1 0.640625 " clip-rule="nonzero"></path></clipPath><mask id="9fe725c805"><g filter="url(#3b74a8bfe1)"><g filter="url(#47bf3f7cc7)" transform="matrix(0.24, 0, 0, 0.24, 0.6, 0.399998)"><image x="0" y="0" width="486" height="192" preserveAspectRatio="xMidYMid meet"></image></g></g></mask><clipPath id="88e3e4b24b"><rect x="0" width="117" y="0" height="47"></rect></clipPath><clipPath id="f639d60032"><path d="M 10 22.5 L 43.652344 22.5 L 43.652344 52.5 L 10 52.5 Z M 10 22.5 " clip-rule="nonzero"></path></clipPath><mask id="def8f39839"><g filter="url(#3b74a8bfe1)"><g filter="url(#47bf3f7cc7)" transform="matrix(0.0703125, 0, 0, 0.0699301, 9.901119, 22.499999)"><image x="0" y="0" width="480" height="429" preserveAspectRatio="xMidYMid meet"></image></g></g></mask></defs><g transform="matrix(1, 0, 0, 1, 33, 14)"><g clip-path="url(#88e3e4b24b)"><g clip-path="url(#501b3c99a6)"><g mask="url(#9fe725c805)"><g transform="matrix(0.24, 0, 0, 0.24, 0.6, 0.399998)"><image x="0" y="0" width="486" height="192" preserveAspectRatio="xMidYMid meet"></image></g></g></g><g fill="#b9b9c3" fill-opacity="1"><g transform="translate(2.303481, 34.943563)"><g><path d="M 11.328125 -16.296875 C 9.167969 -16.296875 7.714844 -15.402344 6.757812 -13.953125 L 6.757812 -15.925781 L 1.234375 -15.925781 L 1.234375 6.050781 L 6.914062 6.050781 L 6.914062 -1.726562 C 7.871094 -0.433594 9.289062 0.371094 11.328125 0.371094 C 15.617188 0.371094 18.117188 -2.933594 18.117188 -7.964844 C 18.117188 -12.996094 15.617188 -16.296875 11.328125 -16.296875 Z M 9.628906 -4.074219 C 7.839844 -4.074219 6.851562 -5.246094 6.851562 -7.964844 C 6.851562 -10.679688 7.839844 -11.851562 9.628906 -11.851562 C 11.421875 -11.851562 12.40625 -10.804688 12.40625 -8.085938 C 12.40625 -5.371094 11.421875 -4.074219 9.628906 -4.074219 Z M 9.628906 -4.074219 "></path></g></g></g><g fill="#b9b9c3" fill-opacity="1"><g transform="translate(18.260579, 34.943563)"><g><path d="M 11.851562 -15.246094 C 10.957031 -11.914062 10 -8.394531 9.105469 -4.289062 C 8.179688 -8.363281 7.222656 -11.882812 6.265625 -15.277344 L 6.082031 -15.925781 L 0 -15.925781 L 4.507812 -3.117188 C 4.875 -2.066406 5.246094 -1.019531 5.246094 -0.15625 C 5.246094 0.925781 4.722656 1.726562 3.023438 1.726562 L 1.449219 1.726562 L 1.449219 6.050781 C 1.914062 6.082031 2.375 6.113281 3.457031 6.113281 C 8.980469 6.113281 10.863281 4.414062 12.378906 0 L 17.839844 -15.925781 L 12.039062 -15.925781 Z M 11.851562 -15.246094 "></path></g></g></g><g fill="#b9b9c3" fill-opacity="1"><g transform="translate(33.16826, 34.943563)"><g><path d="M 11.914062 -13.980469 C 11.050781 -15.371094 9.628906 -16.296875 7.40625 -16.296875 C 3.273438 -16.296875 0.617188 -13.054688 0.617188 -8.488281 C 0.617188 -3.921875 3.394531 -0.617188 7.53125 -0.617188 C 9.597656 -0.617188 10.925781 -1.417969 11.789062 -2.683594 L 11.789062 -0.214844 C 11.789062 1.265625 10.957031 2.253906 9.199219 2.253906 C 7.5 2.253906 6.667969 1.605469 6.605469 0.308594 L 1.019531 0.308594 C 1.140625 3.890625 3.734375 6.421875 9.042969 6.421875 C 14.382812 6.421875 17.46875 3.890625 17.46875 -0.433594 L 17.46875 -15.925781 L 11.914062 -15.925781 Z M 9.105469 -5.0625 C 7.316406 -5.0625 6.328125 -6.113281 6.328125 -8.363281 C 6.328125 -10.617188 7.316406 -11.851562 9.105469 -11.851562 C 10.894531 -11.851562 11.882812 -10.742188 11.882812 -8.488281 C 11.882812 -6.234375 10.894531 -5.0625 9.105469 -5.0625 Z M 9.105469 -5.0625 "></path></g></g></g><g fill="#b9b9c3" fill-opacity="1"><g transform="translate(49.711807, 34.943563)"><g><path d="M 21.234375 -16.296875 C 19.074219 -16.296875 17.316406 -15 16.171875 -13.550781 C 15.246094 -15.371094 13.488281 -16.296875 11.265625 -16.296875 C 9.230469 -16.296875 7.839844 -15.21875 6.789062 -13.828125 L 6.789062 -15.925781 L 1.234375 -15.925781 L 1.234375 0 L 6.914062 0 L 6.914062 -8.828125 C 6.914062 -10.742188 7.933594 -11.480469 9.199219 -11.480469 C 10.742188 -11.480469 11.203125 -10.585938 11.203125 -9.105469 L 11.203125 0 L 16.882812 0 L 16.882812 -8.828125 C 16.882812 -10.742188 17.902344 -11.480469 19.167969 -11.480469 C 20.710938 -11.480469 21.175781 -10.585938 21.175781 -9.105469 L 21.175781 0 L 26.851562 0 L 26.851562 -10.15625 C 26.851562 -14.261719 24.570312 -16.296875 21.234375 -16.296875 Z M 21.234375 -16.296875 "></path></g></g></g><g fill="#b9b9c3" fill-opacity="1"><g transform="translate(75.638343, 34.943563)"><g><path d="M 17.5 0 C 17.070312 -0.585938 16.851562 -1.636719 16.851562 -2.871094 L 16.851562 -11.296875 C 16.851562 -14.445312 14.539062 -16.296875 9.351562 -16.296875 C 4.011719 -16.296875 1.574219 -14.382812 1.296875 -10.679688 L 6.914062 -10.679688 C 7.066406 -12.039062 7.714844 -12.378906 9.289062 -12.378906 C 10.925781 -12.378906 11.296875 -11.820312 11.296875 -11.113281 C 11.296875 -10.246094 10.679688 -9.90625 9.382812 -9.785156 L 6.820312 -9.570312 C 2.160156 -9.167969 0.464844 -7.4375 0.464844 -4.597656 C 0.464844 -1.359375 3.023438 0.371094 6.328125 0.371094 C 8.703125 0.371094 10.402344 -0.402344 11.390625 -1.636719 C 11.421875 -1.019531 11.605469 -0.402344 11.789062 0 Z M 8.273438 -3.273438 C 7.007812 -3.273438 6.234375 -3.859375 6.234375 -4.816406 C 6.234375 -5.773438 6.851562 -6.265625 8.054688 -6.390625 L 9.878906 -6.574219 C 10.585938 -6.667969 11.019531 -6.820312 11.296875 -7.191406 L 11.296875 -6.265625 C 11.296875 -4.011719 9.9375 -3.273438 8.273438 -3.273438 Z M 8.273438 -3.273438 "></path></g></g></g><g fill="#253238" fill-opacity="1"><g transform="translate(91.287185, 21.72328)"><g><path d="M 9.574219 -7.039062 C 10.703125 -7.539062 11.5 -8.59375 11.5 -9.816406 C 11.5 -12.019531 9.628906 -13.480469 6.371094 -13.480469 C 2.742188 -13.480469 1.09375 -11.980469 0.964844 -9.113281 L 4.5 -9.113281 C 4.574219 -10.261719 5.148438 -10.648438 6.332031 -10.648438 C 7.445312 -10.648438 8 -10.148438 8 -9.425781 C 8 -8.425781 7.390625 -8.09375 6.242188 -8.09375 L 5.167969 -8.09375 L 5.167969 -5.554688 L 6.148438 -5.554688 C 7.390625 -5.554688 8.074219 -5.183594 8.074219 -4.09375 C 8.074219 -3.257812 7.445312 -2.722656 6.257812 -2.722656 C 4.832031 -2.722656 4.09375 -3.242188 4.09375 -4.851562 L 0.554688 -4.851562 C 0.574219 -1.683594 2.390625 0.296875 6.40625 0.296875 C 9.945312 0.296875 11.871094 -1.480469 11.871094 -3.890625 C 11.871094 -5.445312 11 -6.628906 9.574219 -7.039062 Z M 9.574219 -7.039062 "></path></g></g></g><g fill="#253238" fill-opacity="1"><g transform="translate(101.459303, 21.72328)"><g><path d="M 6.6875 -13.1875 L 0.925781 -13.1875 L 0.925781 0 L 6.6875 0 C 11.40625 0 13.519531 -2.703125 13.519531 -6.59375 C 13.519531 -10.480469 11.40625 -13.1875 6.6875 -13.1875 Z M 4.628906 -3.109375 L 4.628906 -10.074219 L 6.613281 -10.074219 C 8.371094 -10.074219 9.667969 -9.167969 9.667969 -6.59375 C 9.667969 -4.019531 8.371094 -3.109375 6.613281 -3.109375 Z M 4.628906 -3.109375 "></path></g></g></g></g></g><g clip-path="url(#f639d60032)"><g mask="url(#def8f39839)"><g transform="matrix(0.0703125, 0, 0, 0.0699301, 9.901119, 22.499999)"><image x="0" y="0" width="480" height="429" preserveAspectRatio="xMidYMid meet"></image></g></g></g></svg>